<?xml version="1.0" standalone="no"?>
<!DOCTYPE svg PUBLIC "-//W3C//DTD SVG 20010904//EN"
 "http://www.w3.org/TR/2001/REC-SVG-20010904/DTD/svg10.dtd">
<svg version="1.0" xmlns="http://www.w3.org/2000/svg"
 width="512.000000pt" height="512.000000pt" viewBox="0 0 512.000000 512.000000"
 preserveAspectRatio="xMidYMid meet">
<metadata>
Created by potrace 1.14, written by Peter Selinger 2001-2017
</metadata>
<g transform="translate(0.000000,512.000000) scale(0.100000,-0.100000)"
fill="#000000" stroke="none">
<path d="M597 4493 c-3 -5 -73 -8 -156 -8 -83 0 -151 -3 -151 -7 0 -5 -5 -8
-11 -8 -5 0 -7 6 -3 13 4 6 -2 4 -13 -5 -11 -10 -27 -18 -36 -18 -9 0 -19 -5
-22 -11 -4 -6 -13 -8 -21 -5 -8 3 -13 0 -11 -7 1 -7 -4 -11 -11 -9 -6 1 -11
-4 -10 -10 2 -7 -5 -12 -14 -12 -10 1 -15 -2 -12 -7 6 -10 -11 -45 -20 -41 -3
1 -6 -1 -7 -5 -1 -5 -11 -26 -23 -48 -12 -22 -23 -53 -24 -70 -5 -57 -9 -70
-20 -70 -6 0 -14 -4 -19 -8 -4 -5 -3 -8 2 -7 21 5 32 -1 32 -15 0 -8 -4 -12
-9 -9 -4 3 -8 0 -8 -5 0 -6 4 -11 9 -11 10 0 8 -61 -3 -78 -4 -7 -4 -12 1 -12
4 0 9 -16 9 -35 1 -19 -3 -35 -7 -35 -5 0 -9 -5 -9 -11 0 -5 6 -7 13 -3 8 5 8
2 -2 -9 -11 -14 -11 -17 0 -17 11 0 11 -2 -1 -10 -13 -9 -13 -10 0 -10 13 0
13 -1 0 -10 -8 -5 -10 -10 -4 -10 14 0 14 -33 0 -42 -7 -5 -6 -8 4 -8 13 0 13
-1 0 -10 -13 -8 -13 -11 -1 -19 11 -7 10 -10 -5 -14 -18 -5 -18 -5 0 -6 16 -1
17 -3 5 -18 -8 -9 -9 -14 -4 -11 6 4 12 -2 12 -13 1 -10 -2 -19 -8 -19 -5 0
-9 -5 -9 -11 0 -5 4 -8 9 -5 12 8 8 -27 -4 -36 -6 -5 -4 -8 5 -8 13 0 13 -1 0
-10 -8 -5 -10 -10 -4 -10 14 0 14 -33 0 -42 -7 -5 -6 -8 4 -8 13 0 13 -1 0
-10 -13 -8 -13 -11 -1 -19 11 -7 10 -10 -5 -14 -18 -5 -18 -5 0 -6 16 -1 17
-3 5 -18 -8 -9 -9 -14 -4 -11 6 4 12 -2 12 -13 1 -10 -2 -19 -8 -19 -5 0 -9
-5 -9 -11 0 -5 4 -8 9 -5 12 8 8 -27 -4 -36 -6 -5 -4 -8 5 -8 13 0 13 -1 0
-10 -8 -5 -10 -10 -4 -10 14 0 14 -33 0 -42 -7 -5 -6 -8 4 -8 13 0 13 -1 0
-10 -13 -8 -13 -11 -1 -19 11 -7 10 -10 -5 -14 -18 -5 -18 -5 0 -6 16 -1 17
-3 5 -18 -8 -9 -9 -14 -4 -11 6 4 12 -2 12 -13 1 -10 -2 -19 -8 -19 -5 0 -9
-5 -9 -11 0 -5 4 -8 9 -5 12 8 8 -27 -4 -36 -6 -5 -4 -8 5 -8 13 0 13 -1 0
-10 -8 -5 -10 -10 -4 -10 14 0 14 -33 0 -42 -7 -5 -6 -8 4 -8 13 0 13 -1 0
-10 -13 -8 -13 -11 -1 -19 11 -7 10 -10 -5 -14 -18 -5 -18 -5 0 -6 16 -1 17
-3 5 -18 -8 -9 -9 -14 -4 -11 6 4 12 -2 12 -13 1 -10 -2 -19 -8 -19 -5 0 -9
-5 -9 -11 0 -5 4 -8 9 -5 12 8 8 -27 -4 -36 -6 -5 -4 -8 5 -8 13 0 13 -1 0
-10 -8 -5 -10 -10 -4 -10 14 0 14 -33 0 -42 -7 -5 -6 -8 4 -8 13 0 13 -1 0
-10 -13 -8 -13 -11 -1 -19 11 -7 10 -10 -5 -14 -18 -5 -18 -5 0 -6 16 -1 17
-3 5 -18 -8 -9 -9 -14 -4 -11 6 4 12 -2 12 -13 1 -10 -2 -19 -8 -19 -5 0 -9
-5 -9 -11 0 -5 4 -8 9 -5 12 8 8 -27 -4 -36 -6 -5 -4 -8 5 -8 13 0 13 -1 0
-10 -8 -5 -10 -10 -4 -10 14 0 14 -33 0 -42 -7 -5 -6 -8 4 -8 13 0 13 -1 0
-10 -13 -8 -13 -11 -1 -19 11 -7 10 -10 -5 -14 -18 -5 -18 -5 0 -6 16 -1 17
-3 5 -18 -8 -9 -9 -14 -4 -11 6 4 12 -2 12 -13 1 -10 -2 -19 -8 -19 -5 0 -9
-5 -9 -11 0 -5 4 -8 9 -5 12 8 8 -27 -4 -36 -6 -5 -4 -8 5 -8 13 0 13 -1 0
-10 -8 -5 -10 -10 -4 -10 14 0 14 -33 0 -42 -7 -5 -6 -8 4 -8 13 0 13 -1 0
-10 -13 -8 -13 -11 -1 -19 11 -7 10 -10 -5 -14 -18 -5 -18 -5 0 -6 16 -1 17
-3 5 -18 -8 -9 -9 -14 -4 -11 6 4 12 -2 12 -13 1 -10 -2 -19 -8 -19 -5 0 -9
-5 -9 -11 0 -5 4 -8 9 -5 12 8 8 -27 -4 -36 -6 -5 -4 -8 5 -8 13 0 13 -1 0
-10 -8 -5 -10 -10 -4 -10 14 0 14 -33 0 -42 -7 -5 -6 -8 4 -8 13 0 13 -1 0
-10 -13 -8 -13 -11 -1 -19 11 -7 10 -10 -5 -14 -18 -5 -18 -5 0 -6 16 -1 17
-3 5 -18 -8 -9 -9 -14 -4 -11 6 4 12 -2 12 -13 1 -10 -2 -19 -8 -19 -5 0 -9
-5 -9 -11 0 -5 4 -8 9 -5 12 8 8 -27 -4 -36 -6 -5 -4 -8 5 -8 13 0 13 -1 0
-10 -8 -5 -10 -10 -4 -10 14 0 14 -33 0 -42 -7 -5 -6 -8 4 -8 13 0 13 -1 0
-10 -13 -8 -13 -11 -1 -19 11 -7 10 -10 -5 -14 -18 -5 -18 -5 0 -6 16 -1 17
-3 5 -18 -8 -9 -9 -14 -4 -11 6 4 12 -2 12 -13 1 -10 -2 -19 -8 -19 -5 0 -9
-5 -9 -11 0 -5 4 -8 9 -5 12 8 8 -27 -4 -36 -6 -5 -4 -8 5 -8 13 0 13 -1 0
-10 -8 -5 -10 -10 -4 -10 14 0 14 -33 0 -42 -7 -5 -6 -8 4 -8 13 0 13 -1 0
-10 -13 -8 -13 -11 -1 -19 11 -7 10 -10 -5 -14 -18 -5 -18 -5 0 -6 16 -1 17
-3 5 -18 -8 -9 -9 -14 -4 -11 6 4 12 -2 12 -13 1 -10 -2 -19 -8 -19 -5 0 -9
-5 -9 -11 0 -5 4 -8 9 -5 12 8 8 -27 -4 -36 -6 -5 -4 -8 5 -8 13 0 13 -1 0
-10 -8 -5 -10 -10 -4 -10 14 0 14 -33 0 -42 -7 -5 -6 -8 4 -8 13 0 13 -1 0
-10 -13 -8 -13 -11 -1 -19 11 -7 10 -10 -5 -14 -18 -5 -18 -5 0 -6 16 -1 17
-3 5 -18 -8 -9 -9 -14 -4 -11 6 4 12 -2 12 -13 1 -10 -2 -19 -8 -19 -5 0 -9
-5 -9 -11 0 -5 4 -8 9 -5 12 8 8 -27 -4 -36 -6 -5 -4 -8 5 -8 13 0 13 -1 0
-10 -8 -5 -10 -10 -4 -10 14 0 14 -33 0 -42 -7 -5 -6 -8 4 -8 13 0 13 -1 0
-10 -13 -8 -13 -11 -1 -19 11 -7 10 -10 -5 -14 -18 -5 -18 -5 0 -6 16 -1 17
-3 5 -18 -8 -9 -9 -14 -4 -11 6 4 12 -2 12 -13 1 -10 -2 -19 -8 -19 -5 0 -9
-5 -9 -11 0 -5 4 -8 9 -5 12 8 8 -27 -4 -36 -6 -5 -4 -8 5 -8 13 0 13 -1 0
-10 -8 -5 -10 -10 -5 -10 15 0 16 -40 2 -40 -7 0 -6 -4 3 -10 8 -5 10 -10 4
-10 -7 0 -14 -9 -17 -19 -3 -12 0 -18 7 -15 7 3 11 -9 12 -31 1 -20 -3 -35
-10 -35 -6 0 -4 -5 4 -10 8 -5 10 -10 4 -10 -6 0 -11 -7 -11 -15 0 -8 4 -12 8
-10 4 3 10 -12 14 -33 4 -20 12 -43 18 -51 10 -12 9 -14 -3 -9 -11 4 -15 -2
-16 -19 -2 -22 -1 -23 11 -6 7 10 17 15 21 11 4 -4 1 -15 -7 -25 -11 -13 -11
-15 -1 -9 16 9 52 -25 52 -48 0 -8 5 -18 12 -22 8 -5 9 -1 4 12 -7 18 -6 18
10 2 16 -15 16 -18 0 -33 -20 -21 -20 -21 3 -21 10 0 17 6 14 12 -2 7 0 15 6
19 6 3 11 -1 11 -10 0 -9 4 -14 9 -11 5 4 14 -6 20 -21 l11 -28 -5 29 c-6 26
-5 27 10 12 9 -9 20 -14 25 -11 5 3 12 0 16 -6 5 -8 3 -9 -6 -4 -9 6 -11 4 -6
-4 5 -7 10 -10 14 -7 3 3 10 -2 17 -11 9 -13 14 -13 20 -3 5 8 4 11 -2 7 -6
-4 -14 0 -17 9 -9 24 -7 28 8 15 9 -7 42 -10 89 -8 42 2 74 0 71 -5 -3 -5 -11
-5 -17 -1 -7 4 -6 0 2 -10 8 -10 9 -17 3 -17 -6 0 -14 5 -17 11 -4 6 -14 8
-22 5 -8 -3 -11 -1 -8 4 3 6 3 10 -1 10 -9 0 -33 -32 -33 -45 0 -5 4 -2 10 8
10 18 12 18 32 0 19 -16 20 -16 8 0 -15 19 -2 24 16 6 12 -12 37 -3 28 11 -3
4 3 11 13 15 24 11 83 12 88 3 3 -4 10 -8 15 -8 6 0 8 4 5 8 -6 10 83 7 108
-3 11 -5 17 -5 14 1 -4 5 20 9 54 9 65 -1 84 -14 67 -49 -10 -21 -10 -21 6 -1
8 11 13 25 11 31 -6 16 41 24 54 9 5 -6 6 -16 2 -20 -4 -5 -1 -5 6 -1 7 4 12
1 12 -8 0 -8 4 -17 9 -20 5 -4 7 3 4 14 -3 11 -9 23 -14 26 -5 3 -9 10 -9 17
0 8 3 8 12 -1 13 -13 32 -17 25 -4 -7 10 203 7 227 -3 12 -5 17 -5 13 1 -3 6
16 9 46 8 32 -1 51 -6 50 -12 -2 -6 4 -9 12 -6 8 4 13 9 11 13 -5 8 152 6 161
-2 11 -12 25 -8 17 5 -4 7 -3 8 5 4 6 -4 9 -17 6 -29 -2 -12 -2 -16 1 -9 3 6
10 12 15 12 6 0 8 -4 5 -9 -3 -4 5 -7 17 -7 12 1 28 -3 36 -8 11 -8 13 -8 7 2
-10 17 24 28 36 11 8 -11 9 -10 4 4 -3 10 -6 21 -6 23 0 3 -4 2 -10 -1 -5 -3
-10 -1 -10 5 0 11 29 8 64 -6 11 -4 17 -4 14 2 -4 5 20 9 54 9 65 -1 84 -14
67 -49 -10 -21 -10 -21 6 -1 8 11 13 25 11 31 -6 16 41 24 54 9 5 -6 6 -16 2
-20 -4 -5 -1 -5 5 -1 8 4 13 1 13 -8 0 -8 4 -17 9 -20 5 -4 7 3 4 14 -3 11 -9
23 -14 26 -5 3 -9 10 -9 17 0 8 3 8 12 -1 13 -13 32 -17 25 -4 -3 4 32 7 78 7
54 0 81 -4 75 -10 -4 -5 -3 -19 1 -30 9 -19 9 -19 5 2 -2 14 2 24 13 29 23 10
82 11 87 2 3 -4 10 -8 15 -8 6 0 8 3 5 8 -2 4 42 7 99 7 67 0 101 -3 95 -10
-4 -5 -3 -19 1 -30 9 -19 9 -19 5 2 -2 14 2 24 13 29 23 10 82 11 87 2 3 -4
10 -8 15 -8 6 0 8 4 5 8 -6 10 83 7 108 -3 11 -5 17 -5 14 1 -4 5 20 9 54 9
65 -1 84 -14 67 -49 -10 -21 -10 -21 6 -1 8 11 13 25 11 31 -6 16 41 24 54 9
5 -6 6 -16 2 -20 -4 -5 -1 -5 6 -1 7 4 12 1 12 -8 0 -8 4 -17 9 -20 5 -4 7 3
4 14 -3 11 -9 23 -14 26 -5 3 -9 10 -9 17 0 8 3 8 12 -1 13 -13 32 -17 25 -4
-7 10 203 7 227 -3 12 -5 17 -5 13 1 -3 6 16 9 46 8 32 -1 51 -6 50 -12 -2 -6
4 -9 12 -6 8 4 13 9 11 13 -5 8 152 6 161 -2 11 -12 25 -8 17 5 -4 7 -3 8 5 4
6 -4 9 -17 6 -29 -2 -12 -2 -16 1 -9 3 6 10 12 15 12 6 0 8 -4 5 -9 -3 -4 5
-7 17 -7 12 1 28 -3 36 -8 11 -8 13 -8 7 2 -10 17 24 28 36 11 8 -11 9 -10 4
4 -3 10 -6 21 -6 23 0 3 -5 2 -10 -1 -5 -3 -10 -1 -10 5 0 11 29 8 64 -6 11
-4 17 -4 14 2 -4 5 20 9 54 9 65 -1 84 -14 67 -49 -10 -21 -10 -21 6 -1 8 11
13 25 11 31 -6 16 41 24 54 9 5 -6 6 -16 2 -20 -4 -5 -1 -5 6 -1 7 4 12 1 12
-8 0 -8 4 -17 9 -20 5 -4 7 3 4 14 -3 11 -9 23 -14 26 -5 3 -9 10 -9 17 0 8 3
8 12 -1 13 -13 32 -17 25 -4 -3 4 32 7 78 7 54 0 81 -4 75 -10 -4 -5 -3 -19 1
-30 9 -19 9 -19 5 2 -2 14 2 24 13 29 23 10 82 11 87 2 3 -4 10 -8 15 -8 6 0
8 3 5 8 -2 4 42 7 99 7 67 0 101 -3 95 -10 -4 -5 -3 -19 1 -30 9 -19 9 -19 5
2 -2 14 2 24 13 29 23 10 82 11 87 2 3 -4 10 -8 15 -8 6 0 8 4 5 8 -6 10 83 7
108 -3 11 -5 17 -5 14 1 -4 5 20 9 54 9 65 -1 84 -14 67 -49 -10 -21 -10 -21
6 -1 8 11 13 25 11 32 -5 13 2 14 106 17 27 0 48 6 48 11 0 6 4 4 9 -4 7 -10
4 -19 -7 -28 -15 -12 -14 -13 6 -3 20 10 26 7 23 -12 0 -5 4 -8 9 -8 15 0 12
16 -5 30 -15 13 -21 35 -7 26 5 -3 21 3 37 14 15 10 34 16 42 13 9 -3 11 0 7
10 -3 9 4 21 18 31 26 19 42 21 32 4 -4 -6 -3 -8 4 -5 5 4 8 16 5 27 -3 12 1
22 11 26 9 3 13 11 9 17 -4 6 0 8 9 4 12 -4 14 -1 11 14 -3 10 0 25 6 32 6 8
7 18 3 22 -4 5 1 5 10 2 11 -4 17 -2 15 6 -1 7 3 11 9 10 6 -1 11 5 11 13 0
11 -4 11 -19 -3 -18 -16 -18 -15 -12 23 3 21 11 42 18 46 8 6 8 8 -1 8 -7 0
-13 9 -13 21 0 14 5 19 13 16 8 -3 14 1 14 9 0 7 -5 10 -10 7 -14 -8 -25 15
-19 43 2 14 10 23 17 21 6 -3 12 1 12 9 0 7 -5 10 -10 7 -14 -8 -25 15 -19 43
2 14 10 23 17 21 6 -3 12 1 12 9 0 7 -5 10 -10 7 -14 -8 -25 15 -19 43 2 14
10 23 17 21 6 -3 12 1 12 9 0 7 -5 10 -10 7 -14 -8 -25 15 -19 43 2 14 10 23
17 21 6 -3 12 1 12 9 0 7 -5 10 -10 7 -14 -8 -25 15 -19 43 2 14 10 23 17 21
6 -3 12 1 12 9 0 7 -5 10 -10 7 -14 -8 -25 15 -19 43 2 14 10 23 17 21 6 -3
12 1 12 9 0 7 -5 10 -10 7 -14 -8 -25 15 -19 43 2 14 10 23 17 21 6 -3 12 1
12 9 0 7 -5 10 -10 7 -14 -8 -25 15 -19 43 2 14 10 23 17 21 6 -3 12 1 12 9 0
7 -5 10 -10 7 -14 -8 -25 15 -19 43 2 14 10 23 17 21 6 -3 12 1 12 9 0 7 -5
10 -10 7 -14 -8 -25 15 -19 43 2 14 10 23 17 21 6 -3 12 1 12 9 0 7 -5 10 -10
7 -14 -8 -25 15 -19 43 2 14 10 23 17 21 6 -3 12 1 12 9 0 7 -5 10 -10 7 -14
-8 -25 15 -19 43 2 14 10 23 17 21 6 -3 12 1 12 9 0 7 -5 10 -10 7 -14 -8 -25
15 -19 43 2 14 10 23 17 21 6 -3 12 1 12 9 0 7 -5 10 -10 7 -14 -8 -25 15 -19
43 2 14 10 23 17 21 6 -3 12 1 12 9 0 7 -5 10 -10 7 -14 -8 -25 15 -19 43 2
14 10 23 17 21 6 -3 12 1 12 9 0 7 -5 10 -10 7 -14 -8 -25 15 -19 43 2 14 10
23 17 21 6 -3 12 1 12 9 0 7 -5 10 -10 7 -14 -8 -25 15 -19 43 2 14 10 23 17
21 6 -3 12 1 12 9 0 7 -5 10 -10 7 -14 -8 -25 15 -19 43 2 14 10 23 17 21 6
-3 12 1 12 9 0 7 -5 10 -10 7 -14 -8 -25 15 -19 43 2 14 10 23 17 21 6 -3 12
1 12 9 0 7 -5 10 -10 7 -14 -8 -25 15 -19 43 2 14 10 23 17 21 6 -3 12 1 12 9
0 7 -5 10 -10 7 -14 -8 -25 15 -19 43 2 14 10 23 17 21 6 -3 12 1 12 9 0 7 -5
10 -10 7 -14 -8 -25 15 -19 43 2 14 10 23 17 21 6 -3 12 1 12 9 0 7 -5 10 -10
7 -14 -8 -25 15 -19 43 2 14 10 23 17 21 6 -3 12 1 12 9 0 7 -5 10 -10 7 -14
-8 -25 15 -19 43 2 14 10 23 17 21 6 -3 12 1 12 9 0 7 -5 10 -10 7 -14 -8 -25
15 -19 43 2 14 10 23 17 21 6 -3 12 1 12 9 0 7 -5 10 -10 7 -14 -8 -25 15 -19
43 2 14 10 23 17 21 6 -3 12 1 12 9 0 7 -5 10 -10 7 -14 -8 -25 15 -19 43 2
14 10 23 17 21 6 -3 12 1 12 9 0 7 -5 10 -10 7 -14 -8 -25 15 -19 43 2 14 10
23 17 21 6 -3 12 1 12 9 0 7 -5 10 -10 7 -14 -8 -25 15 -19 43 2 14 10 23 17
21 6 -3 12 1 12 9 0 7 -5 10 -10 7 -14 -8 -25 15 -19 43 2 14 10 23 17 21 6
-3 12 1 12 9 0 7 -5 10 -10 7 -14 -8 -25 15 -19 43 2 14 10 23 17 21 6 -3 12
1 12 9 0 7 -5 10 -10 7 -14 -8 -25 15 -19 43 2 14 10 23 17 21 6 -3 12 1 12 9
0 7 -5 10 -10 7 -16 -10 -25 18 -16 55 4 20 4 42 0 50 -11 20 -1 63 13 55 8
-5 8 -3 0 8 -14 18 -14 52 0 61 7 5 7 8 -2 8 -7 0 -10 5 -7 10 3 6 1 10 -6 10
-8 0 -7 5 2 17 8 9 9 14 4 11 -6 -4 -12 3 -12 15 -4 54 -9 75 -15 70 -5 -2 -8
5 -8 16 0 12 -4 21 -10 21 -11 0 -41 55 -35 64 3 3 2 4 -1 1 -4 -2 -23 8 -43
23 -48 36 -77 52 -96 52 -8 0 -15 4 -15 9 0 4 -12 6 -26 3 -21 -4 -25 -2 -19
9 7 11 6 12 -6 3 -15 -12 -83 -13 -94 -2 -4 4 -15 4 -24 -1 -31 -16 -88 0 -75
21 4 7 2 8 -5 4 -9 -6 -9 -11 -1 -21 9 -11 5 -14 -20 -13 -17 1 -33 5 -36 10
-3 4 -11 5 -17 1 -17 -11 -397 -11 -397 0 0 4 -6 5 -12 0 -17 -11 -468 -11
-468 0 0 4 -6 5 -12 0 -17 -11 -308 -11 -308 0 0 4 -6 5 -12 0 -17 -11 -308
-11 -308 0 0 4 -6 5 -12 0 -18 -11 -308 -11 -308 0 0 6 -5 6 -12 0 -16 -12
-428 -11 -447 1 -10 6 -12 6 -7 -3 9 -14 -30 -11 -53 3 -9 6 -12 5 -8 -1 4 -7
-18 -10 -63 -9 l-70 1 -1 30 c0 17 -2 38 -4 48 -2 9 2 17 8 17 8 0 8 3 2 8
-13 10 -14 62 -1 62 6 0 4 5 -4 10 -8 5 -11 10 -7 10 4 0 3 10 -4 21 -9 17 -8
20 3 13 11 -6 11 -5 -1 9 -7 9 -10 17 -7 17 10 0 -43 91 -71 121 -13 14 -20
29 -16 34 5 4 3 5 -3 2 -6 -3 -21 3 -32 14 -12 11 -22 17 -22 15 0 -3 -15 2
-32 12 -18 10 -45 17 -60 17 -16 -1 -28 2 -28 6 0 5 -9 6 -20 4 -11 -2 -22 1
-25 6 -4 5 -12 6 -18 2 -21 -13 -50 -14 -59 -1 -5 9 -8 9 -8 1 0 -12 -17 -12
-37 0 -6 4 -14 4 -16 0 -7 -10 -938 -10 -954 0 -6 4 -14 4 -16 0z m949 -3986
c12 -12 26 -8 18 5 -4 7 -3 8 5 4 17 -11 9 -29 -14 -32 -20 -3 -45 12 -45 26
0 10 26 7 36 -3z m1920 0 c12 -12 26 -8 18 5 -4 7 -3 8 5 4 17 -11 9 -29 -14
-32 -20 -3 -45 12 -45 26 0 10 26 7 36 -3z"/>
<path d="M2051 4044 c0 -11 3 -14 6 -6 3 7 2 16 -1 19 -3 4 -6 -2 -5 -13z"/>
<path d="M10 3981 c0 -6 4 -13 10 -16 6 -3 7 1 4 9 -7 18 -14 21 -14 7z"/>
<path d="M10 3839 c0 -5 5 -7 10 -4 6 3 10 8 10 11 0 2 -4 4 -10 4 -5 0 -10
-5 -10 -11z"/>
<path d="M10 3741 c0 -6 4 -13 10 -16 6 -3 7 1 4 9 -7 18 -14 21 -14 7z"/>
<path d="M15 3669 c-4 -6 -5 -12 -2 -15 2 -3 7 2 10 11 7 17 1 20 -8 4z"/>
<path d="M10 3599 c0 -5 5 -7 10 -4 6 3 10 8 10 11 0 2 -4 4 -10 4 -5 0 -10
-5 -10 -11z"/>
<path d="M5085 3580 c-3 -6 1 -7 9 -4 18 7 21 14 7 14 -6 0 -13 -4 -16 -10z"/>
<path d="M10 3501 c0 -6 4 -13 10 -16 6 -3 7 1 4 9 -7 18 -14 21 -14 7z"/>
<path d="M15 3429 c-4 -6 -5 -12 -2 -15 2 -3 7 2 10 11 7 17 1 20 -8 4z"/>
<path d="M10 3359 c0 -5 5 -7 10 -4 6 3 10 8 10 11 0 2 -4 4 -10 4 -5 0 -10
-5 -10 -11z"/>
<path d="M10 3261 c0 -6 4 -13 10 -16 6 -3 7 1 4 9 -7 18 -14 21 -14 7z"/>
<path d="M15 3189 c-4 -6 -5 -12 -2 -15 2 -3 7 2 10 11 7 17 1 20 -8 4z"/>
<path d="M10 3119 c0 -5 5 -7 10 -4 6 3 10 8 10 11 0 2 -4 4 -10 4 -5 0 -10
-5 -10 -11z"/>
<path d="M10 3021 c0 -6 4 -13 10 -16 6 -3 7 1 4 9 -7 18 -14 21 -14 7z"/>
<path d="M15 2949 c-4 -6 -5 -12 -2 -15 2 -3 7 2 10 11 7 17 1 20 -8 4z"/>
<path d="M10 2879 c0 -5 5 -7 10 -4 6 3 10 8 10 11 0 2 -4 4 -10 4 -5 0 -10
-5 -10 -11z"/>
<path d="M10 2781 c0 -6 4 -13 10 -16 6 -3 7 1 4 9 -7 18 -14 21 -14 7z"/>
<path d="M15 2709 c-4 -6 -5 -12 -2 -15 2 -3 7 2 10 11 7 17 1 20 -8 4z"/>
<path d="M10 2639 c0 -5 5 -7 10 -4 6 3 10 8 10 11 0 2 -4 4 -10 4 -5 0 -10
-5 -10 -11z"/>
<path d="M10 2541 c0 -6 4 -13 10 -16 6 -3 7 1 4 9 -7 18 -14 21 -14 7z"/>
<path d="M15 2469 c-4 -6 -5 -12 -2 -15 2 -3 7 2 10 11 7 17 1 20 -8 4z"/>
<path d="M10 2399 c0 -5 5 -7 10 -4 6 3 10 8 10 11 0 2 -4 4 -10 4 -5 0 -10
-5 -10 -11z"/>
<path d="M10 2301 c0 -6 4 -13 10 -16 6 -3 7 1 4 9 -7 18 -14 21 -14 7z"/>
<path d="M15 2229 c-4 -6 -5 -12 -2 -15 2 -3 7 2 10 11 7 17 1 20 -8 4z"/>
<path d="M10 2159 c0 -5 5 -7 10 -4 6 3 10 8 10 11 0 2 -4 4 -10 4 -5 0 -10
-5 -10 -11z"/>
<path d="M10 2061 c0 -6 4 -13 10 -16 6 -3 7 1 4 9 -7 18 -14 21 -14 7z"/>
<path d="M15 1989 c-4 -6 -5 -12 -2 -15 2 -3 7 2 10 11 7 17 1 20 -8 4z"/>
<path d="M10 1919 c0 -5 5 -7 10 -4 6 3 10 8 10 11 0 2 -4 4 -10 4 -5 0 -10
-5 -10 -11z"/>
<path d="M10 1821 c0 -6 4 -13 10 -16 6 -3 7 1 4 9 -7 18 -14 21 -14 7z"/>
<path d="M15 1749 c-4 -6 -5 -12 -2 -15 2 -3 7 2 10 11 7 17 1 20 -8 4z"/>
<path d="M10 1679 c0 -5 5 -7 10 -4 6 3 10 8 10 11 0 2 -4 4 -10 4 -5 0 -10
-5 -10 -11z"/>
<path d="M10 1581 c0 -6 4 -13 10 -16 6 -3 7 1 4 9 -7 18 -14 21 -14 7z"/>
<path d="M15 1509 c-4 -6 -5 -12 -2 -15 2 -3 7 2 10 11 7 17 1 20 -8 4z"/>
<path d="M10 1439 c0 -5 5 -7 10 -4 6 3 10 8 10 11 0 2 -4 4 -10 4 -5 0 -10
-5 -10 -11z"/>
<path d="M10 1341 c0 -6 4 -13 10 -16 6 -3 7 1 4 9 -7 18 -14 21 -14 7z"/>
<path d="M15 1269 c-4 -6 -5 -12 -2 -15 2 -3 7 2 10 11 7 17 1 20 -8 4z"/>
<path d="M10 1199 c0 -5 5 -7 10 -4 6 3 10 8 10 11 0 2 -4 4 -10 4 -5 0 -10
-5 -10 -11z"/>
<path d="M10 1101 c0 -6 4 -13 10 -16 6 -3 7 1 4 9 -7 18 -14 21 -14 7z"/>
<path d="M15 1029 c-4 -6 -5 -12 -2 -15 2 -3 7 2 10 11 7 17 1 20 -8 4z"/>
<path d="M10 959 c0 -5 5 -7 10 -4 6 3 10 8 10 11 0 2 -4 4 -10 4 -5 0 -10 -5
-10 -11z"/>
<path d="M10 861 c0 -6 4 -13 10 -16 6 -3 7 1 4 9 -7 18 -14 21 -14 7z"/>
<path d="M5095 809 c-4 -6 -5 -12 -2 -15 2 -3 7 2 10 11 7 17 1 20 -8 4z"/>
<path d="M13 737 c-3 -6 -1 -7 5 -3 6 3 15 -2 21 -11 9 -16 10 -16 8 3 -1 21
-23 28 -34 11z"/>
<path d="M5056 638 c3 -5 10 -6 15 -3 13 9 11 12 -6 12 -8 0 -12 -4 -9 -9z"/>
<path d="M5028 633 c6 -2 9 -10 6 -15 -4 -7 -2 -8 5 -4 13 9 5 26 -12 25 -9 0
-8 -2 1 -6z"/>
<path d="M78 623 c7 -3 16 -2 19 1 4 3 -2 6 -13 5 -11 0 -14 -3 -6 -6z"/>
<path d="M70 605 c0 -7 30 -13 34 -7 3 4 -4 9 -15 9 -10 1 -19 0 -19 -2z"/>
<path d="M4966 581 c-3 -5 6 -8 20 -8 19 0 22 2 13 8 -18 11 -26 11 -33 0z"/>
<path d="M110 555 c5 -7 6 -16 2 -21 -4 -5 -3 -5 2 -1 15 12 15 34 0 34 -9 0
-11 -4 -4 -12z"/>
<path d="M4923 532 c-7 -4 -9 -13 -4 -21 6 -9 10 -7 14 8 3 12 4 21 4 21 -1 0
-7 -4 -14 -8z"/>
<path d="M180 506 c0 -2 7 -6 15 -10 8 -3 15 -1 15 4 0 6 -7 10 -15 10 -8 0
-15 -2 -15 -4z"/>
<path d="M231 487 c-13 -21 -12 -21 5 -5 10 10 16 20 13 22 -3 3 -11 -5 -18
-17z"/>
<path d="M485 500 c-3 -5 -2 -18 4 -27 7 -14 9 -12 8 10 -2 30 -3 31 -12 17z"/>
<path d="M517 503 c-4 -3 -7 -11 -7 -17 0 -6 5 -5 12 2 6 6 9 14 7 17 -3 3 -9
2 -12 -2z"/>
<path d="M541 488 c-10 -16 -10 -18 0 -12 9 5 10 2 6 -10 -4 -11 -3 -15 4 -11
6 4 8 13 5 20 -3 8 0 15 7 18 7 2 7 6 1 10 -5 3 -16 -3 -23 -15z"/>
<path d="M592 494 c-18 -13 1 -30 21 -17 19 12 37 12 37 0 0 -5 2 -8 5 -5 3 3
3 12 -1 21 -6 18 -38 18 -62 1z m23 -4 c-3 -5 -12 -10 -18 -10 -7 0 -6 4 3 10
19 12 23 12 15 0z"/>
<path d="M667 499 c7 -7 15 -10 18 -7 3 3 -2 9 -12 12 -14 6 -15 5 -6 -5z"/>
<path d="M708 491 c-20 -17 -20 -17 1 -18 11 -1 24 3 27 9 4 7 14 2 26 -13
l19 -24 -12 25 c-7 14 -13 28 -12 31 4 12 -30 5 -49 -10z m27 -1 c-3 -5 -12
-10 -18 -10 -7 0 -6 4 3 10 19 12 23 12 15 0z"/>
<path d="M781 501 c-6 -4 -6 -12 -1 -21 8 -12 10 -11 10 5 1 19 1 19 15 1 14
-18 14 -18 12 1 -1 19 -17 25 -36 14z"/>
<path d="M877 503 c-10 -9 -9 -33 1 -33 4 0 8 9 9 20 2 21 0 24 -10 13z"/>
<path d="M950 495 c-7 -9 -10 -18 -6 -22 3 -3 6 0 6 8 0 12 2 11 10 -1 7 -12
9 -10 7 8 -2 26 -1 26 -17 7z"/>
<path d="M986 501 c-7 -10 0 -15 17 -12 4 0 7 -3 7 -7 0 -5 15 -8 33 -7 17 0
38 -4 46 -9 11 -8 13 -8 7 2 -13 21 25 28 40 7 8 -10 14 -15 14 -9 -1 25 -50
57 -50 33 0 -8 -5 -8 -15 1 -14 12 -19 7 -16 -13 1 -5 -4 -7 -11 -4 -7 2 -12
9 -11 14 1 5 -4 10 -12 10 -8 0 -12 -4 -9 -9 8 -12 -10 -10 -23 3 -8 8 -13 8
-17 0z"/>
<path d="M1147 499 c7 -7 15 -10 18 -7 3 3 -2 9 -12 12 -14 6 -15 5 -6 -5z"/>
<path d="M1196 498 c-18 -10 -21 -28 -5 -28 5 0 7 5 4 10 -7 11 30 8 41 -3 12
-12 23 -8 34 13 9 16 8 18 -5 14 -8 -3 -12 -11 -9 -16 4 -6 1 -8 -7 -6 -8 3
-13 10 -12 15 2 12 -20 13 -41 1z"/>
<path d="M1310 493 c-11 -8 -20 -19 -20 -25 0 -7 7 -3 15 8 12 15 16 16 24 5
7 -11 10 -11 15 0 3 8 4 4 2 -9 -2 -12 0 -20 5 -17 13 9 7 52 -8 52 -7 0 -22
-7 -33 -14z"/>
<path d="M1382 502 c-10 -7 -10 -12 3 -22 14 -12 18 -12 25 0 7 11 12 11 23 2
12 -10 16 -9 21 4 4 9 4 19 1 22 -3 3 -5 0 -5 -7 0 -8 -6 -11 -15 -7 -8 3 -21
8 -27 11 -7 3 -19 1 -26 -3z m28 -6 c0 -3 -4 -8 -10 -11 -5 -3 -10 -1 -10 4 0
6 5 11 10 11 6 0 10 -2 10 -4z"/>
<path d="M1627 499 c7 -7 15 -10 18 -7 3 3 -2 9 -12 12 -14 6 -15 5 -6 -5z"/>
<path d="M1668 491 c-20 -17 -20 -17 1 -18 11 -1 24 3 27 9 4 7 14 2 26 -13
l19 -24 -12 25 c-7 14 -13 28 -12 31 4 12 -30 5 -49 -10z m27 -1 c-3 -5 -12
-10 -18 -10 -7 0 -6 4 3 10 19 12 23 12 15 0z"/>
<path d="M1741 501 c-6 -4 -6 -12 -1 -21 8 -12 10 -11 10 5 1 19 1 19 15 1 14
-18 14 -18 12 1 -1 19 -17 25 -36 14z"/>
<path d="M1837 503 c-10 -9 -9 -33 1 -33 4 0 8 9 9 20 2 21 0 24 -10 13z"/>
<path d="M1916 498 c-9 -5 -16 -14 -16 -21 0 -7 4 -6 10 3 9 13 12 12 25 -4 8
-11 15 -16 16 -10 0 5 2 16 4 25 3 17 -15 21 -39 7z"/>
<path d="M1983 502 c-8 -5 -9 -13 -3 -22 7 -12 12 -12 22 -2 18 18 32 14 17
-5 -12 -16 -12 -17 2 -6 9 7 18 12 20 10 3 -1 -4 6 -14 16 -21 19 -27 20 -44
9z m27 -6 c0 -3 -4 -8 -10 -11 -5 -3 -10 -1 -10 4 0 6 5 11 10 11 6 0 10 -2
10 -4z"/>
<path d="M2085 500 c-3 -5 -2 -18 4 -27 7 -14 9 -12 8 10 -2 30 -3 31 -12 17z"/>
<path d="M2117 503 c-4 -3 -7 -11 -7 -17 0 -6 5 -5 12 2 6 6 9 14 7 17 -3 3
-9 2 -12 -2z"/>
<path d="M2141 488 c-10 -16 -10 -18 0 -12 9 5 10 2 6 -10 -4 -11 -3 -15 4
-11 6 4 8 13 5 20 -3 8 0 15 7 18 7 2 7 6 1 10 -5 3 -16 -3 -23 -15z"/>
<path d="M2192 494 c-11 -8 -12 -13 -3 -18 6 -4 17 -4 24 1 17 13 36 10 47 -7
5 -8 10 -10 11 -5 0 6 2 17 4 25 3 19 -58 22 -83 4z m23 -4 c-3 -5 -12 -10
-18 -10 -7 0 -6 4 3 10 19 12 23 12 15 0z"/>
<path d="M2303 502 c-8 -5 -9 -13 -3 -22 7 -12 12 -12 22 -2 18 18 32 14 17
-5 -12 -16 -12 -17 2 -6 9 7 18 12 20 10 3 -1 -4 6 -14 16 -21 19 -27 20 -44
9z m27 -6 c0 -3 -4 -8 -10 -11 -5 -3 -10 -1 -10 4 0 6 5 11 10 11 6 0 10 -2
10 -4z"/>
<path d="M2405 500 c-3 -5 -2 -18 4 -27 7 -14 9 -12 8 10 -2 30 -3 31 -12 17z"/>
<path d="M2437 503 c-4 -3 -7 -11 -7 -17 0 -6 5 -5 12 2 6 6 9 14 7 17 -3 3
-9 2 -12 -2z"/>
<path d="M2461 488 c-10 -16 -10 -18 0 -12 9 5 10 2 6 -10 -4 -11 -3 -15 4
-11 6 4 8 13 5 20 -3 8 0 15 7 18 7 2 7 6 1 10 -5 3 -16 -3 -23 -15z"/>
<path d="M2512 494 c-18 -13 1 -30 21 -17 19 12 37 12 37 0 0 -5 2 -8 5 -5 3
3 3 12 -1 21 -6 18 -38 18 -62 1z m23 -4 c-3 -5 -12 -10 -18 -10 -7 0 -6 4 3
10 19 12 23 12 15 0z"/>
<path d="M2587 499 c7 -7 15 -10 18 -7 3 3 -2 9 -12 12 -14 6 -15 5 -6 -5z"/>
<path d="M2628 491 c-20 -17 -20 -17 1 -18 11 -1 24 3 27 9 4 7 14 2 26 -13
l19 -24 -12 25 c-7 14 -13 28 -12 31 4 12 -30 5 -49 -10z m27 -1 c-3 -5 -12
-10 -18 -10 -7 0 -6 4 3 10 19 12 23 12 15 0z"/>
<path d="M2701 501 c-6 -4 -6 -12 -1 -21 8 -12 10 -11 10 5 1 19 1 19 15 1 14
-18 14 -18 12 1 -1 19 -17 25 -36 14z"/>
<path d="M2797 503 c-10 -9 -9 -33 1 -33 4 0 8 9 9 20 2 21 0 24 -10 13z"/>
<path d="M2870 495 c-7 -9 -10 -18 -6 -22 3 -3 6 0 6 8 0 12 2 11 10 -1 7 -12
9 -10 7 8 -2 26 -1 26 -17 7z"/>
<path d="M2906 501 c-7 -10 0 -15 17 -12 4 0 7 -3 7 -7 0 -5 15 -8 33 -7 17 0
38 -4 46 -9 11 -8 13 -8 7 2 -13 21 25 28 40 7 8 -10 14 -15 14 -9 -1 25 -50
57 -50 33 0 -8 -5 -8 -15 1 -14 12 -19 7 -16 -13 1 -5 -4 -7 -11 -4 -7 2 -12
9 -11 14 1 5 -4 10 -12 10 -8 0 -12 -4 -9 -9 8 -12 -10 -10 -23 3 -8 8 -13 8
-17 0z"/>
<path d="M3067 499 c7 -7 15 -10 18 -7 3 3 -2 9 -12 12 -14 6 -15 5 -6 -5z"/>
<path d="M3116 498 c-18 -10 -21 -28 -5 -28 5 0 7 5 4 10 -7 11 30 8 41 -3 12
-12 23 -8 34 13 9 16 8 18 -5 14 -8 -3 -12 -11 -9 -16 4 -6 1 -8 -7 -6 -8 3
-13 10 -12 15 2 12 -20 13 -41 1z"/>
<path d="M3230 493 c-11 -8 -20 -19 -20 -25 0 -7 7 -3 15 8 12 15 16 16 24 5
7 -11 10 -11 15 0 3 8 4 4 2 -9 -2 -12 0 -20 5 -17 13 9 7 52 -8 52 -7 0 -22
-7 -33 -14z"/>
<path d="M3302 502 c-10 -7 -10 -12 3 -22 14 -12 18 -12 25 0 7 11 12 11 23 2
12 -10 16 -9 21 4 4 9 4 19 1 22 -3 3 -5 0 -5 -7 0 -8 -6 -11 -15 -7 -8 3 -21
8 -27 11 -7 3 -19 1 -26 -3z m28 -6 c0 -3 -4 -8 -10 -11 -5 -3 -10 -1 -10 4 0
6 5 11 10 11 6 0 10 -2 10 -4z"/>
<path d="M3547 499 c7 -7 15 -10 18 -7 3 3 -2 9 -12 12 -14 6 -15 5 -6 -5z"/>
<path d="M3588 491 c-20 -17 -20 -17 1 -18 11 -1 24 3 27 9 4 7 14 2 26 -13
l19 -24 -12 25 c-7 14 -13 28 -12 31 4 12 -30 5 -49 -10z m27 -1 c-3 -5 -12
-10 -18 -10 -7 0 -6 4 3 10 19 12 23 12 15 0z"/>
<path d="M3661 501 c-6 -4 -6 -12 -1 -21 8 -12 10 -11 10 5 1 19 1 19 15 1 14
-18 14 -18 12 1 -1 19 -17 25 -36 14z"/>
<path d="M3757 503 c-10 -9 -9 -33 1 -33 4 0 8 9 9 20 2 21 0 24 -10 13z"/>
<path d="M3836 498 c-9 -5 -16 -14 -16 -21 0 -7 4 -6 10 3 9 13 12 12 25 -4 8
-11 15 -16 16 -10 0 5 2 16 4 25 3 17 -15 21 -39 7z"/>
<path d="M3903 502 c-8 -5 -9 -13 -3 -22 7 -12 12 -12 22 -2 18 18 32 14 17
-5 -12 -16 -12 -17 2 -6 9 7 18 12 20 10 3 -1 -4 6 -14 16 -21 19 -27 20 -44
9z m27 -6 c0 -3 -4 -8 -10 -11 -5 -3 -10 -1 -10 4 0 6 5 11 10 11 6 0 10 -2
10 -4z"/>
<path d="M4005 500 c-3 -5 -2 -18 4 -27 7 -14 9 -12 8 10 -2 30 -3 31 -12 17z"/>
<path d="M4037 503 c-4 -3 -7 -11 -7 -17 0 -6 5 -5 12 2 6 6 9 14 7 17 -3 3
-9 2 -12 -2z"/>
<path d="M4061 488 c-10 -16 -10 -18 0 -12 9 5 10 2 6 -10 -4 -11 -3 -15 4
-11 6 4 8 13 5 20 -3 8 0 15 7 18 7 2 7 6 1 10 -5 3 -16 -3 -23 -15z"/>
<path d="M4112 494 c-11 -8 -12 -13 -3 -18 6 -4 17 -4 24 1 17 13 36 10 47 -7
5 -8 10 -10 11 -5 0 6 2 17 4 25 3 19 -58 22 -83 4z m23 -4 c-3 -5 -12 -10
-18 -10 -7 0 -6 4 3 10 19 12 23 12 15 0z"/>
<path d="M4223 502 c-8 -5 -9 -13 -3 -22 7 -12 12 -12 22 -2 18 18 32 14 17
-5 -12 -16 -12 -17 2 -6 9 7 18 12 20 10 3 -1 -4 6 -14 16 -21 19 -27 20 -44
9z m27 -6 c0 -3 -4 -8 -10 -11 -5 -3 -10 -1 -10 4 0 6 5 11 10 11 6 0 10 -2
10 -4z"/>
<path d="M4325 500 c-3 -5 -2 -18 4 -27 7 -14 9 -12 8 10 -2 30 -3 31 -12 17z"/>
<path d="M4357 503 c-4 -3 -7 -11 -7 -17 0 -6 5 -5 12 2 6 6 9 14 7 17 -3 3
-9 2 -12 -2z"/>
<path d="M4381 488 c-10 -16 -10 -18 0 -12 9 5 10 2 6 -10 -4 -11 -3 -15 4
-11 6 4 8 13 5 20 -3 8 0 15 7 18 7 2 7 6 1 10 -5 3 -16 -3 -23 -15z"/>
<path d="M4432 494 c-18 -13 1 -30 21 -17 19 12 37 12 37 0 0 -5 2 -8 5 -5 3
3 3 12 -1 21 -6 18 -38 18 -62 1z m23 -4 c-3 -5 -12 -10 -18 -10 -7 0 -6 4 3
10 19 12 23 12 15 0z"/>
<path d="M4507 499 c7 -7 15 -10 18 -7 3 3 -2 9 -12 12 -14 6 -15 5 -6 -5z"/>
<path d="M4548 491 c-20 -17 -20 -17 1 -18 11 -1 24 3 27 9 4 7 14 2 26 -13
l19 -24 -12 25 c-7 14 -13 28 -12 31 4 12 -30 5 -49 -10z m27 -1 c-3 -5 -12
-10 -18 -10 -7 0 -6 4 3 10 19 12 23 12 15 0z"/>
<path d="M4621 501 c-6 -4 -6 -12 -1 -21 8 -12 10 -11 10 5 1 19 1 19 15 1 14
-18 14 -18 12 1 -1 19 -17 25 -36 14z"/>
<path d="M4745 493 c-7 -20 -6 -23 6 -23 5 0 7 5 3 11 -4 7 -1 10 7 7 8 -3 13
-11 11 -17 -1 -7 2 -10 8 -6 8 5 8 11 1 19 -6 7 -9 15 -6 18 3 2 -2 5 -10 5
-8 0 -17 -7 -20 -14z"/>
<path d="M4790 505 c0 -5 4 -15 8 -22 6 -9 11 -7 20 7 7 12 8 20 2 20 -5 0
-10 -6 -10 -12 0 -9 -4 -8 -10 2 -5 8 -10 11 -10 5z"/>
<path d="M346 484 c-9 -24 -2 -26 12 -4 7 11 8 20 3 20 -5 0 -12 -7 -15 -16z"/>
<path d="M4712 474 c2 -14 9 -31 18 -37 12 -10 13 -10 4 3 -6 8 -10 25 -9 38
1 12 -2 22 -7 22 -4 0 -7 -12 -6 -26z"/>
<path d="M270 483 c5 -2 8 -9 5 -13 -3 -5 -1 -11 4 -14 5 -4 8 2 7 11 -2 9 -8
18 -15 19 -6 1 -7 0 -1 -3z"/>
<path d="M315 469 c-4 -6 -5 -12 -2 -15 2 -3 7 2 10 11 7 17 1 20 -8 4z"/>
<path d="M513 455 c0 -8 4 -12 9 -9 5 3 6 10 3 15 -9 13 -12 11 -12 -6z"/>
<path d="M616 461 c-3 -5 1 -14 8 -20 10 -9 16 -9 21 -1 4 6 1 9 -7 8 -7 -2
-12 3 -10 10 2 14 -4 16 -12 3z"/>
<path d="M735 460 c-3 -5 -1 -10 4 -10 6 0 11 5 11 10 0 6 -2 10 -4 10 -3 0
-8 -4 -11 -10z"/>
<path d="M895 460 c-3 -5 -1 -10 4 -10 6 0 11 5 11 10 0 6 -2 10 -4 10 -3 0
-8 -4 -11 -10z"/>
<path d="M975 460 c-4 -6 1 -7 11 -3 13 5 15 3 9 -7 -5 -9 -4 -11 4 -6 6 4 9
12 6 17 -8 12 -22 12 -30 -1z"/>
<path d="M1313 455 c0 -8 4 -12 9 -9 5 3 6 10 3 15 -9 13 -12 11 -12 -6z"/>
<path d="M1416 461 c-3 -5 2 -15 12 -22 15 -12 16 -12 5 2 -7 9 -10 19 -6 22
3 4 4 7 0 7 -3 0 -8 -4 -11 -9z"/>
<path d="M1455 460 c-4 -6 1 -7 11 -3 13 5 15 3 9 -7 -5 -9 -4 -11 4 -6 6 4 9
12 6 17 -8 12 -22 12 -30 -1z"/>
<path d="M1695 460 c-3 -5 -1 -10 4 -10 6 0 11 5 11 10 0 6 -2 10 -4 10 -3 0
-8 -4 -11 -10z"/>
<path d="M1855 460 c-3 -5 -1 -10 4 -10 6 0 11 5 11 10 0 6 -2 10 -4 10 -3 0
-8 -4 -11 -10z"/>
<path d="M2113 455 c0 -8 4 -12 9 -9 5 3 6 10 3 15 -9 13 -12 11 -12 -6z"/>
<path d="M2216 461 c-9 -15 23 -36 35 -24 8 8 6 11 -7 10 -11 -1 -18 4 -16 11
2 14 -4 16 -12 3z"/>
<path d="M2433 455 c0 -8 4 -12 9 -9 5 3 6 10 3 15 -9 13 -12 11 -12 -6z"/>
<path d="M2536 461 c-3 -5 1 -14 8 -20 10 -9 16 -9 21 -1 4 6 1 9 -7 8 -7 -2
-12 3 -10 10 2 14 -4 16 -12 3z"/>
<path d="M2655 460 c-3 -5 -1 -10 4 -10 6 0 11 5 11 10 0 6 -2 10 -4 10 -3 0
-8 -4 -11 -10z"/>
<path d="M2815 460 c-3 -5 -1 -10 4 -10 6 0 11 5 11 10 0 6 -2 10 -4 10 -3 0
-8 -4 -11 -10z"/>
<path d="M2895 460 c-4 -6 1 -7 11 -3 13 5 15 3 9 -7 -5 -9 -4 -11 4 -6 6 4 9
12 6 17 -8 12 -22 12 -30 -1z"/>
<path d="M3233 455 c0 -8 4 -12 9 -9 5 3 6 10 3 15 -9 13 -12 11 -12 -6z"/>
<path d="M3336 461 c-3 -5 2 -15 12 -22 15 -12 16 -12 5 2 -7 9 -10 19 -6 22
3 4 4 7 0 7 -3 0 -8 -4 -11 -9z"/>
<path d="M3375 460 c-4 -6 1 -7 11 -3 13 5 15 3 9 -7 -5 -9 -4 -11 4 -6 6 4 9
12 6 17 -8 12 -22 12 -30 -1z"/>
<path d="M3615 460 c-3 -5 -1 -10 4 -10 6 0 11 5 11 10 0 6 -2 10 -4 10 -3 0
-8 -4 -11 -10z"/>
<path d="M3775 460 c-3 -5 -1 -10 4 -10 6 0 11 5 11 10 0 6 -2 10 -4 10 -3 0
-8 -4 -11 -10z"/>
<path d="M4033 455 c0 -8 4 -12 9 -9 5 3 6 10 3 15 -9 13 -12 11 -12 -6z"/>
<path d="M4136 461 c-9 -15 23 -36 35 -24 8 8 6 11 -7 10 -11 -1 -18 4 -16 11
2 14 -4 16 -12 3z"/>
<path d="M4353 455 c0 -8 4 -12 9 -9 5 3 6 10 3 15 -9 13 -12 11 -12 -6z"/>
<path d="M4455 461 c-6 -10 11 -24 32 -27 7 -1 15 1 18 6 2 4 -5 7 -18 6 -13
-1 -21 4 -19 12 2 14 -4 16 -13 3z"/>
<path d="M4575 460 c-3 -5 -1 -10 4 -10 6 0 11 5 11 10 0 6 -2 10 -4 10 -3 0
-8 -4 -11 -10z"/>
<path d="M1235 449 c-4 -6 -5 -12 -2 -15 2 -3 7 2 10 11 7 17 1 20 -8 4z"/>
<path d="M2033 445 c0 -8 4 -12 9 -9 5 3 6 10 3 15 -9 13 -12 11 -12 -6z"/>
<path d="M2353 445 c0 -8 4 -12 9 -9 5 3 6 10 3 15 -9 13 -12 11 -12 -6z"/>
<path d="M3155 449 c-4 -6 -5 -12 -2 -15 2 -3 7 2 10 11 7 17 1 20 -8 4z"/>
<path d="M3953 445 c0 -8 4 -12 9 -9 5 3 6 10 3 15 -9 13 -12 11 -12 -6z"/>
<path d="M4273 445 c0 -8 4 -12 9 -9 5 3 6 10 3 15 -9 13 -12 11 -12 -6z"/>
<path d="M390 445 c0 -7 30 -13 34 -7 3 4 -4 9 -15 9 -10 1 -19 0 -19 -2z"/>
</g>
</svg>
